<!DOCTYPE svg PUBLIC "-//W3C//DTD SVG 1.1//EN" "http://www.w3.org/Graphics/SVG/1.1/DTD/svg11.dtd">
<!-- Uploaded to: SVG Repo, www.svgrepo.com, Transformed by: SVG Repo Mixer Tools -->
<svg width="800px" height="800px" viewBox="0 0 24 24" id="call-out" xmlns="http://www.w3.org/2000/svg" class="icon multi-color" fill="#ffffff">
<g id="SVGRepo_bgCarrier" stroke-width="0"/>
<g id="SVGRepo_tracerCarrier" stroke-linecap="round" stroke-linejoin="round"/>
<g id="SVGRepo_iconCarrier">
<title style="stroke-width: 2;">call out</title>
<path id="secondary-fill" d="M21,15v3.93a2,2,0,0,1-2.29,2,18,18,0,0,1-6.9-2.38A18,18,0,0,1,5.9,6.15a1,1,0,0,1,1-1h3.31A10.5,10.5,0,0,0,11,7.67a1,1,0,0,1-.42,1.26l-.86.49a1,1,0,0,0-.33,1.46,14.08,14.08,0,0,0,3.69,3.69,1.08,1.08,0,0,0,.6.18,1,1,0,0,0,.86-.51l.49-.86A1,1,0,0,1,16.33,13a10.74,10.74,0,0,0,3.78,1A1,1,0,0,1,21,15Z" style="fill: #58B2FE; stroke-width: 2;"/>
<path id="primary-stroke" d="M21,15v3.93a2,2,0,0,1-2.29,2A18,18,0,0,1,3.14,5.29,2,2,0,0,1,5.13,3H9a1,1,0,0,1,1,.89,10.74,10.74,0,0,0,1,3.78,1,1,0,0,1-.42,1.26l-.86.49a1,1,0,0,0-.33,1.46,14.08,14.08,0,0,0,3.69,3.69,1,1,0,0,0,1.46-.33l.49-.86A1,1,0,0,1,16.33,13a10.74,10.74,0,0,0,3.78,1A1,1,0,0,1,21,15Z" style="fill: none; stroke: #ffffff; stroke-linecap: round; stroke-linejoin: round; stroke-width: 2;"/>
<path id="tertiary-stroke" d="M21,3,16,8m5,0V3H16" style="fill: none; stroke: #b7b7b7; stroke-linecap: round; stroke-linejoin: round; stroke-width: 2;"/>
</g>
</svg>