<!DOCTYPE svg PUBLIC "-//W3C//DTD SVG 1.1//EN" "http://www.w3.org/Graphics/SVG/1.1/DTD/svg11.dtd">
<!-- Uploaded to: SVG Repo, www.svgrepo.com, Transformed by: SVG Repo Mixer Tools -->
<svg width="800px" height="800px" viewBox="0 0 24 24" id="mail" xmlns="http://www.w3.org/2000/svg" class="icon multi-color" fill="#ffffff">
<g id="SVGRepo_bgCarrier" stroke-width="0"/>
<g id="SVGRepo_tracerCarrier" stroke-linecap="round" stroke-linejoin="round"/>
<g id="SVGRepo_iconCarrier">
<title style="stroke-width: 2;">mail</title>
<path id="tertiary-fill" d="M21,8v7.73A2,2,0,0,1,20,16H4a2,2,0,0,1-1-.27V8l9,5Z" style="fill: #b7b7b7; stroke-width: 2;"/>
<path id="secondary-fill" d="M21,6V8l-9,5L3,8V6A1,1,0,0,1,4,5H20A1,1,0,0,1,21,6Z" style="fill: #58B2FE; stroke-width: 2;"/>
<path id="primary-stroke" d="M21,6V8l-9,5L3,8V6A1,1,0,0,1,4,5H20A1,1,0,0,1,21,6Zm-9,7L3,8V18a1,1,0,0,0,1,1H20a1,1,0,0,0,1-1V8Z" style="fill: none; stroke: #ffffff; stroke-linecap: round; stroke-linejoin: round; stroke-width: 2;"/>
</g>
</svg>