<svg width="512" height="512" viewBox="0 0 512 512" fill="none" xmlns="http://www.w3.org/2000/svg">
<path d="M470.56 152.799H41.44V437.984H470.56V152.799Z" fill="#167FFC"/>
<mask id="mask0_304_3" style="mask-type:luminance" maskUnits="userSpaceOnUse" x="41" y="152" width="430" height="286">
<path d="M470.56 152.799H41.44V437.984H470.56V152.799Z" fill="white"/>
</mask>
<g mask="url(#mask0_304_3)">
<path d="M94.106 191.67C128.677 191.67 156.702 166.925 156.702 136.401C156.702 105.877 128.677 81.132 94.106 81.132C59.5352 81.132 31.51 105.877 31.51 136.401C31.51 166.925 59.5352 191.67 94.106 191.67Z" stroke="white" stroke-width="3" stroke-miterlimit="10"/>
<path d="M124.781 264.969C159.352 264.969 187.377 240.224 187.377 209.7C187.377 179.176 159.352 154.431 124.781 154.431C90.2102 154.431 62.185 179.176 62.185 209.7C62.185 240.224 90.2102 264.969 124.781 264.969Z" stroke="white" stroke-width="3" stroke-miterlimit="10"/>
<path d="M304.772 504.082C339.343 504.082 367.368 479.337 367.368 448.813C367.368 418.289 339.343 393.544 304.772 393.544C270.201 393.544 242.176 418.289 242.176 448.813C242.176 479.337 270.201 504.082 304.772 504.082Z" stroke="white" stroke-width="3" stroke-miterlimit="10"/>
<path d="M306.813 430.58C330.72 430.58 350.101 413.468 350.101 392.359C350.101 371.25 330.72 354.138 306.813 354.138C282.906 354.138 263.525 371.25 263.525 392.359C263.525 413.468 282.906 430.58 306.813 430.58Z" stroke="white" stroke-width="3" stroke-miterlimit="10"/>
<path d="M364.862 297.847C412.515 297.847 451.145 263.739 451.145 221.664C451.145 179.589 412.515 145.481 364.862 145.481C317.209 145.481 278.579 179.589 278.579 221.664C278.579 263.739 317.209 297.847 364.862 297.847Z" stroke="white" stroke-width="3" stroke-miterlimit="10"/>
<path d="M87.156 500.006C134.809 500.006 173.439 465.898 173.439 423.823C173.439 381.748 134.809 347.64 87.156 347.64C39.5032 347.64 0.873016 381.748 0.873016 423.823C0.873016 465.898 39.5032 500.006 87.156 500.006Z" stroke="white" stroke-width="3" stroke-miterlimit="10"/>
<path d="M424.836 354.028C456.212 354.028 481.647 331.57 481.647 303.867C481.647 276.164 456.212 253.706 424.836 253.706C393.46 253.706 368.025 276.164 368.025 303.867C368.025 331.57 393.46 354.028 424.836 354.028Z" stroke="white" stroke-width="3" stroke-miterlimit="10"/>
</g>
<path d="M235.612 309.746C235.612 309.746 259.036 325.106 273.874 308.303L255.197 280.754L235.612 309.746Z" fill="#595BD4"/>
<mask id="mask1_304_3" style="mask-type:luminance" maskUnits="userSpaceOnUse" x="41" y="152" width="430" height="286">
<path d="M470.56 152.799H41.44V437.984H470.56V152.799Z" fill="white"/>
</mask>
<g mask="url(#mask1_304_3)">
<path d="M449.246 486.176L451.538 486.036L393.423 482.816L390.613 482.986L390.653 483.586L123.188 480.366L123.228 479.766L121.088 479.636L61.1379 485.966C80.1482 390.936 96.8879 336.826 96.8879 336.826C97.9477 330.154 100.211 323.729 103.568 317.866C111.948 303.366 124.258 298.206 124.258 298.206L191.878 277.156L201.398 274.196C204.27 273.304 206.978 271.953 209.418 270.196C209.768 269.936 210.108 269.686 210.438 269.416C213.132 267.275 215.408 264.655 217.148 261.686C218.554 259.302 219.592 256.72 220.228 254.026V253.986C220.418 253.211 220.569 252.427 220.678 251.636C220.758 251.106 220.828 250.576 220.868 250.036C220.898 249.776 220.918 249.516 220.928 249.256V249.196C220.948 248.986 220.958 248.766 220.958 248.556C220.968 248.236 220.978 247.916 220.978 247.596V210.316H290.678V247.596C290.673 252.362 291.895 257.05 294.228 261.206C295.662 263.761 297.488 266.076 299.638 268.066C302.677 270.875 306.306 272.969 310.258 274.196L313.738 275.276L387.388 298.206C409.068 308.236 416.798 336.826 416.798 336.826H416.908C416.908 336.826 430.246 391.146 449.246 486.176Z" fill="#EDB172"/>
<path d="M247.418 248.969C272.277 244.636 290.677 215.835 290.677 215.835C290.677 215.835 266.023 213.805 250.605 209.313H220.975V246.595C220.972 248.746 220.72 250.891 220.224 252.984L220.223 253.023C220.223 253.023 222.558 253.302 247.418 248.969Z" fill="#B88855"/>
<path d="M314.964 129.785C313.43 129.485 311.849 129.522 310.331 129.892C304.924 92.5667 282.492 64.5754 255.628 64.5754C228.69 64.5754 206.204 92.7204 200.877 130.202C199.063 129.573 197.115 129.429 195.228 129.785C186.91 131.438 182.158 142.794 184.614 155.148C186.984 167.07 195.2 175.536 203.248 174.629C211.147 203.887 221.775 226.383 242.147 230.163C247.623 231.18 252.488 227.955 256.845 227.955C261.155 227.955 266.365 231.661 269.974 230.361C291.822 222.496 300.811 203.849 308.252 174.697C315.864 174.607 323.337 166.424 325.579 155.148C328.035 142.794 323.282 131.438 314.964 129.785Z" fill="#FE9526"/>
<path d="M321.41 152.223C322.339 144.952 320.726 138.756 317.808 138.383C314.89 138.01 311.771 143.602 310.842 150.873C309.913 158.143 311.525 164.34 314.444 164.713C317.362 165.086 320.481 159.494 321.41 152.223Z" fill="#B88855"/>
<path d="M196.704 164.711C199.623 164.338 201.235 158.142 200.306 150.871C199.377 143.6 196.258 138.008 193.34 138.381C190.421 138.754 188.809 144.95 189.738 152.221C190.667 159.492 193.786 165.084 196.704 164.711Z" fill="#B88855"/>
<path d="M200.877 130.202C201.264 133.932 201.489 137.641 201.671 141.347L202.147 152.444C202.185 154.292 202.282 156.137 202.352 157.983L202.578 163.518C202.761 167.209 202.947 170.891 203.248 174.629C201.982 171.093 201.098 167.432 200.61 163.708C200.077 160.006 199.746 156.277 199.616 152.538C199.495 148.805 199.499 145.073 199.701 141.346C199.858 137.61 200.251 133.888 200.877 130.202ZM310.646 130.202C311.271 133.888 311.664 137.61 311.822 141.346C312.024 145.073 312.028 148.805 311.906 152.538C311.777 156.277 311.445 160.006 310.913 163.708C310.425 167.432 309.54 171.093 308.275 174.629C308.576 170.891 308.761 167.209 308.945 163.518L309.171 157.983C309.241 156.137 309.338 154.292 309.376 152.444L309.852 141.347C310.034 137.641 310.259 133.932 310.646 130.202Z" fill="#B88855"/>
<path d="M259.962 202.836C270.808 202.836 279.601 196.596 279.601 188.898C279.601 181.2 270.808 174.96 259.962 174.96C249.116 174.96 240.323 181.2 240.323 188.898C240.323 196.596 249.116 202.836 259.962 202.836Z" fill="#C18D56"/>
<path d="M253.057 201.932C255.309 202.533 257.631 202.836 259.962 202.836C270.378 202.836 278.878 197.076 279.536 189.801C277.284 189.201 274.963 188.897 272.632 188.898C262.215 188.898 253.716 194.658 253.057 201.932Z" fill="#D79C5D"/>
<path d="M255.718 170.294C255.876 171.381 255.813 172.488 255.534 173.549C255.275 174.621 254.87 175.652 254.329 176.612C253.201 178.575 251.653 180.263 249.795 181.555C247.935 182.85 245.849 183.785 243.645 184.313C243.106 184.447 242.561 184.558 242.014 184.67C241.655 184.77 241.335 184.834 240.995 184.913C240.328 185.019 239.64 185.262 238.955 185.394C236.205 186.136 233.283 186.987 230.154 187.934C228.566 188.374 226.96 188.878 225.265 189.368C224.821 189.477 224.413 189.617 223.98 189.745C223.526 189.863 223.12 190.01 222.669 190.143C222.207 190.282 221.811 190.428 221.332 190.596C221.119 190.672 220.901 190.763 220.668 190.871C220.44 190.986 220.225 191.126 220.027 191.289C219.921 191.024 219.863 190.741 219.858 190.455C219.857 190.181 219.864 189.885 219.888 189.583C219.965 189.035 220.088 188.494 220.254 187.967C220.572 186.945 220.997 185.959 221.522 185.026C222.535 183.225 223.805 181.581 225.292 180.145C228.297 177.229 232.009 175.145 236.063 174.097C237.122 173.835 238.197 173.648 239.282 173.535C239.828 173.49 240.393 173.431 240.919 173.407C241.258 173.397 241.599 173.385 241.945 173.396C243.323 173.404 244.701 173.337 246.072 173.198C249.446 172.872 252.724 171.885 255.718 170.294Z" fill="#030435"/>
<path d="M254.581 170.294C257.575 171.886 260.853 172.872 264.227 173.198C265.598 173.337 266.975 173.404 268.353 173.396C268.7 173.385 269.041 173.397 269.379 173.407C269.905 173.431 270.471 173.49 271.017 173.535C272.101 173.648 273.177 173.836 274.236 174.097C278.29 175.145 282.002 177.229 285.007 180.145C286.494 181.581 287.763 183.225 288.777 185.026C289.302 185.959 289.727 186.945 290.045 187.967C290.211 188.494 290.334 189.035 290.411 189.583C290.435 189.885 290.442 190.181 290.441 190.456C290.436 190.741 290.378 191.024 290.271 191.289C290.074 191.126 289.859 190.986 289.63 190.871C289.397 190.763 289.179 190.672 288.966 190.596C288.488 190.428 288.092 190.282 287.629 190.143C287.179 190.01 286.773 189.863 286.318 189.745C285.885 189.617 285.478 189.477 285.034 189.368C283.339 188.878 281.732 188.374 280.145 187.934C277.016 186.987 274.094 186.136 271.343 185.394C270.659 185.262 269.971 185.019 269.304 184.913C268.964 184.834 268.644 184.77 268.284 184.67C267.738 184.558 267.192 184.447 266.653 184.313C264.45 183.785 262.364 182.85 260.504 181.555C258.646 180.263 257.098 178.575 255.97 176.613C255.429 175.652 255.024 174.621 254.765 173.549C254.486 172.488 254.423 171.381 254.581 170.294Z" fill="#030435"/>
<path d="M267.805 168.727C264.351 172.227 259.785 174.413 254.893 174.91C255.045 174.935 255.197 174.948 255.349 174.961H254.437C254.589 174.948 254.741 174.935 254.893 174.91C250.081 174.43 245.581 172.309 242.147 168.904L267.805 168.727Z" fill="#B88855"/>
<path d="M452.268 489.366H59.728L60.288 486.386C79.298 391.356 96.038 337.246 96.038 337.246C97.1847 330.024 99.7434 323.099 103.568 316.866C111.908 303.446 123.408 298.626 123.408 298.626L178.478 281.486L200.538 274.616L213.078 293.376L218.148 300.966L225.428 311.866L229.768 318.356L241.798 336.356L253.728 354.206L266.098 336.516L279.758 316.986L286.728 307.026L292.938 298.156L299.828 288.296L309.398 274.616L333.018 281.966L386.538 298.626C408.218 308.666 415.938 337.246 415.938 337.246H416.058C416.058 337.246 432.638 390.846 451.538 485.036C451.628 485.486 451.718 485.936 451.808 486.386L452.268 489.366Z" fill="#3F3F3F"/>
<path d="M210.257 268.857L221.482 366.522L255.268 431.589L299.115 341.89L300.086 268.857L255.197 280.754L210.257 268.857Z" fill="#E8EAE8"/>
<path d="M246.435 311.827L229.421 401.819L255.268 431.589L273.507 410.53L263.344 309.048L246.435 311.827Z" fill="#595BD4"/>
<path d="M213.211 258.607L210.302 268.897L228.423 320.35L255.268 280.754L213.211 258.607Z" fill="#53D86A"/>
<path d="M297.254 258.607L300.162 268.897L282.042 320.35L255.197 280.754L297.254 258.607Z" fill="#53D86A"/>
<path d="M210.257 268.857L177.34 281.933L167.38 308.997L197.485 315.937L177.34 341.832L255.268 431.589C255.268 431.589 227.286 341.839 210.257 268.857ZM300.086 268.857L333.004 281.933L342.963 308.997L312.858 315.937L333.004 341.832L255.268 431.589C255.268 431.589 283.057 341.839 300.086 268.857Z" fill="#595959"/>
<path d="M123.868 433.716L123.573 489.576L118.523 489.156L123.868 433.716Z" fill="#595959"/>
<path d="M390.608 433.716L395.955 489.172L390.901 489.56L390.608 433.716Z" fill="#595959"/>
<path d="M257.403 489.384L252.334 489.349L252.755 428.444H257.824L257.403 489.384Z" fill="#595959"/>
<path d="M207.092 112.22C207.092 112.22 201.357 105.669 200.656 93.564C200.656 93.564 192.356 104.5 195.904 125.79C199.451 147.08 202.151 153.995 202.151 153.995C202.151 153.995 202.173 115.264 207.092 112.22ZM296.152 96.2212C296.152 96.2212 305.25 107.222 307.641 115.38C310.032 123.539 308.744 151.127 309.826 154.95C309.826 154.95 321.251 135.606 319.769 113.153C319.769 113.153 319.905 92.9001 302.799 82.0524C302.542 87.4678 300.152 92.5616 296.152 96.2212Z" fill="#030435"/>
</g>
<path d="M314.611 129.441C313.077 129.142 311.496 129.179 309.978 129.549C304.571 92.2235 282.139 64.2322 255.275 64.2322C228.337 64.2322 205.851 92.3773 200.524 129.858C198.71 129.23 196.763 129.086 194.875 129.441C186.557 131.095 181.805 142.451 184.261 154.805C186.631 166.727 194.847 175.192 202.895 174.286C210.794 203.544 221.422 226.04 241.794 229.82C247.27 230.836 252.135 227.612 256.492 227.612C260.802 227.612 266.012 231.317 269.621 230.018C291.469 222.153 300.458 203.506 307.899 174.354C315.511 174.264 322.984 166.081 325.226 154.805C327.682 142.451 322.929 131.095 314.611 129.441Z" fill="#FE9526"/>
<path d="M213.563 131.705C215.758 129.886 218.15 128.32 220.696 127.037C221.932 126.391 223.189 125.803 224.459 125.25L226.326 124.465C226.896 124.233 227.456 123.978 228.005 123.701C230.237 122.601 232.346 121.264 234.293 119.714C234.797 119.321 235.285 118.904 235.781 118.479C236.293 118.021 236.834 117.551 237.377 117.102C238.487 116.177 239.663 115.335 240.896 114.582C240.48 115.966 239.963 117.317 239.349 118.624C239.046 119.268 238.746 119.895 238.408 120.527C238.049 121.19 237.645 121.829 237.201 122.439C235.385 124.915 232.993 126.911 230.231 128.253C229.534 128.574 228.831 128.884 228.106 129.135C227.357 129.385 226.765 129.569 226.077 129.764C224.746 130.145 223.402 130.489 222.036 130.775C219.256 131.402 216.413 131.714 213.563 131.705ZM297.07 130.212C294.236 130.519 291.376 130.505 288.545 130.172C287.157 130.03 285.785 129.827 284.421 129.588C283.717 129.465 283.109 129.344 282.337 129.173C281.59 129 280.859 128.765 280.132 128.518C277.246 127.471 274.658 125.736 272.594 123.462C272.088 122.902 271.62 122.309 271.193 121.687C270.791 121.094 270.428 120.502 270.06 119.893C269.312 118.657 268.657 117.367 268.099 116.035C269.404 116.654 270.661 117.369 271.861 118.174C272.449 118.564 273.035 118.974 273.592 119.376C274.131 119.747 274.66 120.111 275.201 120.449C277.3 121.788 279.536 122.897 281.872 123.759C282.446 123.976 283.029 124.171 283.62 124.343L285.56 124.929C286.88 125.346 288.192 125.8 289.488 126.314C292.154 127.325 294.697 128.632 297.07 130.212Z" fill="#101138"/>
<path d="M321.057 151.878C321.986 144.607 320.374 138.411 317.455 138.038C314.537 137.665 311.418 143.257 310.489 150.528C309.56 157.799 311.172 163.995 314.091 164.368C317.009 164.741 320.128 159.149 321.057 151.878Z" fill="#B88855"/>
<path d="M196.351 164.368C199.27 163.995 200.882 157.799 199.953 150.528C199.024 143.257 195.905 137.665 192.987 138.038C190.068 138.411 188.456 144.607 189.385 151.878C190.314 159.149 193.433 164.741 196.351 164.368Z" fill="#B88855"/>
<path d="M200.524 129.858C200.911 133.589 201.136 137.298 201.318 141.004L201.794 152.1C201.832 153.949 201.929 155.794 201.999 157.639L202.225 163.175C202.409 166.866 202.594 170.547 202.895 174.286C201.63 170.75 200.745 167.089 200.257 163.365C199.725 159.662 199.393 155.934 199.264 152.195C199.142 148.462 199.146 144.73 199.348 141.003C199.505 137.267 199.898 133.545 200.524 129.858ZM310.293 129.858C310.918 133.545 311.311 137.267 311.469 141.003C311.671 144.73 311.675 148.462 311.554 152.195C311.424 155.934 311.092 159.662 310.56 163.365C310.072 167.089 309.187 170.75 307.922 174.286C308.223 170.547 308.409 166.866 308.592 163.175L308.818 157.639C308.888 155.794 308.985 153.949 309.023 152.1L309.499 141.004C309.681 137.298 309.906 133.589 310.293 129.858Z" fill="#B88855"/>
<path d="M219.738 139.9C220.841 139.048 222.081 138.392 223.406 137.959C224.713 137.508 226.075 137.234 227.455 137.144C228.869 137.026 230.293 137.164 231.659 137.552C233.076 137.903 234.328 138.732 235.204 139.9C233.939 139.627 232.646 139.5 231.351 139.52C230.119 139.504 228.876 139.591 227.62 139.672C225 139.916 222.368 139.993 219.738 139.9Z" fill="#101138"/>
<path d="M231.502 146.489C236.394 146.489 236.402 138.887 231.502 138.887C226.611 138.887 226.603 146.489 231.502 146.489ZM274.685 139.9C275.788 139.048 277.028 138.392 278.353 137.959C279.66 137.508 281.022 137.234 282.402 137.144C283.816 137.026 285.241 137.164 286.606 137.552C288.023 137.903 289.276 138.732 290.152 139.9C288.886 139.627 287.593 139.5 286.298 139.52C285.066 139.504 283.824 139.591 282.567 139.672C279.947 139.916 277.315 139.993 274.685 139.9Z" fill="#101138"/>
<path d="M286.45 146.489C291.341 146.489 291.349 138.887 286.45 138.887C281.558 138.887 281.55 146.489 286.45 146.489Z" fill="#101138"/>
<path d="M259.609 202.493C270.455 202.493 279.248 196.253 279.248 188.555C279.248 180.857 270.455 174.617 259.609 174.617C248.763 174.617 239.97 180.857 239.97 188.555C239.97 196.253 248.763 202.493 259.609 202.493Z" fill="#C18D56"/>
<path d="M252.704 201.589C254.956 202.19 257.278 202.493 259.609 202.492C270.026 202.492 278.525 196.733 279.183 189.458C276.931 188.858 274.61 188.554 272.279 188.555C261.862 188.555 253.363 194.315 252.704 201.589Z" fill="#D79C5D"/>
<path d="M255.365 169.951C255.523 171.038 255.46 172.145 255.181 173.206C254.922 174.278 254.517 175.308 253.976 176.269C252.848 178.231 251.3 179.919 249.442 181.212C247.582 182.507 245.496 183.442 243.292 183.97C242.753 184.104 242.208 184.215 241.661 184.327C241.302 184.426 240.982 184.491 240.642 184.569C239.975 184.676 239.287 184.919 238.603 185.051C235.852 185.793 232.93 186.644 229.801 187.591C228.213 188.03 226.607 188.535 224.912 189.025C224.468 189.134 224.06 189.274 223.628 189.402C223.173 189.52 222.767 189.667 222.317 189.8C221.854 189.939 221.458 190.084 220.979 190.253C220.767 190.329 220.549 190.42 220.315 190.528C220.087 190.643 219.872 190.783 219.674 190.946C219.568 190.68 219.51 190.398 219.505 190.112C219.504 189.838 219.511 189.542 219.535 189.24C219.612 188.692 219.735 188.151 219.901 187.623C220.219 186.601 220.644 185.616 221.169 184.683C222.182 182.882 223.452 181.238 224.939 179.802C227.944 176.886 231.656 174.802 235.71 173.754C236.769 173.492 237.844 173.305 238.929 173.191C239.475 173.147 240.041 173.088 240.566 173.064C240.905 173.054 241.246 173.042 241.592 173.053C242.97 173.061 244.348 172.994 245.719 172.855C249.093 172.529 252.371 171.542 255.365 169.951Z" fill="#030435"/>
<path d="M254.228 169.951C257.222 171.542 260.5 172.529 263.874 172.854C265.245 172.994 266.623 173.061 268.001 173.053C268.347 173.042 268.688 173.054 269.027 173.064C269.552 173.088 270.118 173.147 270.664 173.191C271.748 173.305 272.824 173.492 273.883 173.754C277.937 174.802 281.649 176.886 284.654 179.802C286.141 181.238 287.41 182.882 288.424 184.683C288.949 185.616 289.374 186.601 289.692 187.623C289.858 188.151 289.981 188.692 290.058 189.24C290.082 189.542 290.089 189.838 290.088 190.112C290.083 190.398 290.025 190.68 289.918 190.945C289.721 190.783 289.506 190.643 289.278 190.528C289.044 190.42 288.826 190.329 288.613 190.253C288.135 190.084 287.739 189.939 287.277 189.799C286.826 189.667 286.42 189.52 285.966 189.402C285.532 189.274 285.125 189.134 284.681 189.025C282.986 188.535 281.38 188.03 279.792 187.591C276.663 186.644 273.741 185.793 270.99 185.051C270.306 184.919 269.618 184.676 268.951 184.569C268.611 184.49 268.291 184.426 267.931 184.327C267.385 184.215 266.84 184.104 266.301 183.97C264.097 183.442 262.011 182.507 260.151 181.212C258.293 179.919 256.745 178.231 255.617 176.269C255.076 175.308 254.671 174.278 254.412 173.206C254.133 172.145 254.07 171.038 254.228 169.951Z" fill="#030435"/>
<path d="M267.452 168.383C263.998 171.883 259.432 174.07 254.54 174.567C254.692 174.592 254.844 174.605 254.997 174.617H254.084C254.236 174.605 254.388 174.592 254.54 174.567C249.728 174.087 245.228 171.966 241.794 168.561L267.452 168.383Z" fill="#B88855"/>
<path d="M206.739 111.877C206.739 111.877 201.004 105.326 200.303 93.2208C200.303 93.2208 192.003 104.157 195.551 125.447C199.098 146.737 201.798 153.652 201.798 153.652C201.798 153.652 201.82 114.921 206.739 111.877ZM295.799 95.878C295.799 95.878 304.897 106.879 307.288 115.037C309.679 123.195 308.391 150.784 309.473 154.606C309.473 154.606 320.898 135.263 319.416 112.81C319.416 112.81 319.552 92.557 302.446 81.7092C302.189 87.1247 299.799 92.2184 295.799 95.878Z" fill="#030435"/>
<path d="M223.647 122.739C223.647 122.739 204.345 121.347 201.724 96.3271C199.102 71.3069 238.892 37.4235 279.564 55.3921C320.236 73.3606 299.233 114.396 261.136 100.571C223.04 86.7447 201.844 104.633 223.647 122.739Z" fill="#101138"/>
</svg>
